{"accessors":[{"bufferView":0,"byteOffset":0,"componentType":5126,"count":312,"max":[5.0,1.5,7.54300022125244],"min":[-19.9134998321533,-1.5,-34.9220008850098],"normalized":false,"type":"VEC3"},{"bufferView":1,"byteOffset":0,"componentType":5126,"count":312,"max":[1.0,0.0,0.0000763009302318096,1.0],"min":[-1.0,-1.0,-1.0,-1.0],"normalized":false,"type":"VEC4"},{"bufferView":2,"byteOffset":0,"componentType":5126,"count":312,"max":[1.0,1.0,1.0],"min":[-1.0,-1.0,-1.0],"normalized":false,"type":"VEC3"},{"bufferView":3,"byteOffset":0,"componentType":5126,"count":312,"max":[1.0,1.0],"min":[0.0,0.0],"normalized":false,"type":"VEC2"},{"bufferView":4,"byteOffset":0,"componentType":5123,"count":312,"max":[311.0],"min":[0.0],"normalized":false,"type":"SCALAR"},{"bufferView":5,"byteOffset":0,"componentType":5126,"count":702,"max":[8.03999996185303,3.0,23.8427810668945],"min":[-21.5131664276123,-4.0,-18.6223278045654],"normalized":false,"type":"VEC3"},{"bufferView":6,"byteOffset":0,"componentType":5126,"count":702,"max":[1.0,0.0,1.0,1.0],"min":[-1.0,-1.0,-1.0,1.0],"normalized":false,"type":"VEC4"},{"bufferView":7,"byteOffset":0,"componentType":5126,"count":702,"max":[1.0,1.0,1.0],"min":[-1.0,-1.0,-1.0],"normalized":false,"type":"VEC3"},{"bufferView":8,"byteOffset":0,"componentType":5126,"count":702,"max":[1.0,1.0],"min":[0.0,0.0],"normalized":false,"type":"VEC2"},{"bufferView":9,"byteOffset":0,"componentType":5123,"count":702,"max":[701.0],"min":[0.0],"normalized":false,"type":"SCALAR"}],"asset":{"generator":"Godot Engine v4.4.1.stable.steam@49a5bc7b616bd04689a2c89e89bda41f50241464","version":"2.0"},"bufferViews":[{"buffer":0,"byteLength":3744,"byteOffset":0,"byteStride":12,"target":34962},{"buffer":0,"byteLength":4992,"byteOffset":3744,"byteStride":16,"target":34962},{"buffer":0,"byteLength":3744,"byteOffset":8736,"byteStride":12,"target":34962},{"buffer":0,"byteLength":2496,"byteOffset":12480,"byteStride":8,"target":34962},{"buffer":0,"byteLength":624,"byteOffset":14976,"target":34963},{"buffer":0,"byteLength":8424,"byteOffset":15600,"byteStride":12,"target":34962},{"buffer":0,"byteLength":11232,"byteOffset":24024,"byteStride":16,"target":34962},{"buffer":0,"byteLength":8424,"byteOffset":35256,"byteStride":12,"target":34962},{"buffer":0,"byteLength":5616,"byteOffset":43680,"byteStride":8,"target":34962},{"buffer":0,"byteLength":1404,"byteOffset":49296,"target":34963}],"buffers":[{"byteLength":50700,"uri":"main_level0.bin"}],"extensions":{"KHR_lights_punctual":{"lights":[{"type":"directional"}]}},"extensionsUsed":["GODOT_single_root","KHR_lights_punctual"],"images":[{"uri":"textures%2F_albedo000.png"}],"materials":[{"extensions":{},"pbrMetallicRoughness":{"baseColorFactor":[0.0854158401489258,0.0854158401489258,0.0854158401489258,1.0],"baseColorTexture":{"index":0},"metallicFactor":0.0,"roughnessFactor":1.0}}],"meshes":[{"extras":{"targetNames":[]},"primitives":[{"attributes":{"NORMAL":2,"POSITION":0,"TANGENT":1,"TEXCOORD_0":3},"indices":4,"material":0,"mode":4}]},{"extras":{"targetNames":[]},"primitives":[{"attributes":{"NORMAL":7,"POSITION":5,"TANGENT":6,"TEXCOORD_0":8},"indices":9,"material":0,"mode":4}]}],"nodes":[{"children":[1,2,3,12,26],"name":"MainLevel"},{"name":"WorldEnvironment"},{"extensions":{"KHR_lights_punctual":{"light":0}},"name":"DirectionalLight3D","rotation":[-0.129410728812218,0.836515307426453,0.482963681221008,0.22414530813694]},{"children":[4,5,6,7,8,9,10,11],"mesh":0,"name":"OverhangLowerLevel2","translation":[-1.60000002384186,-2.5,16.2999992370605]},{"name":"CutOverhangLowerLevel","translation":[1.44049263000488,0.0,-1.42056655883789]},{"name":"CutCorridorLowerRoomToLink","rotation":[0.0,-0.70710676908493,0.0,0.70710676908493],"translation":[-4.66404390335083,-0.25,3.35000038146973]},{"name":"OverhangLinkRoom","translation":[-10.5790004730225,0.0,3.1949999332428]},{"name":"CutLinkRoom","translation":[-10.5790004730225,0.0,4.97690963745117]},{"name":"OverhangArena","translation":[-13.5059995651245,0.0,-14.4090003967285]},{"name":"CutArena","translation":[-13.5601444244385,0.0,-14.3409328460693]},{"name":"OverhangMoat","translation":[-7.79400014877319,0.0,-31.7080001831055]},{"name":"CutMoat","translation":[-3.24059200286865,0.0,-31.7080001831055]},{"children":[13],"mesh":1,"name":"MainRoom2"},{"children":[14,15,16,17,18,19,20,21,22,23,24,25],"name":"CSGCombiner3D"},{"name":"Corridor","translation":[0.0,-2.0,6.48400020599365]},{"name":"CorridorLowerRoomToLink","rotation":[0.0,-0.70710676908493,0.0,0.70710676908493],"translation":[-7.65000009536743,-2.75,19.6499996185303]},{"name":"CorridorLinkToArena","rotation":[0.0,-0.70710676908493,0.0,0.70710676908493],"translation":[-11.8819999694824,0.25,12.9700002670288]},{"name":"CorridorLowerRoomToArena","translation":[-6.25699996948242,0.25,7.66599988937378]},{"name":"CorridorArenaToMoat","rotation":[0.0,-0.70710676908493,0.0,0.70710676908493],"translation":[-15.8020000457764,0.25,-9.61400032043457]},{"name":"LowerRoom","translation":[-1.60000002384186,-1.0,16.2999992370605]},{"name":"LowerRoomExitCorridor","rotation":[0.0,0.70710676908493,0.0,0.70710676908493],"translation":[5.71500015258789,-3.0,12.0]},{"name":"Ramp","rotation":[-0.00000000205908845529734,0.998889923095703,0.0471064448356628,0.0000000436628582178855],"translation":[7.0,-2.5,5.90000009536743]},{"name":"MainRoomToLedderCorridor","rotation":[0.0,0.70710676908493,0.0,0.70710676908493],"translation":[6.0,-2.0,0.0]},{"name":"Arena","translation":[-15.1056671142578,-1.0,1.8910961151123]},{"name":"Moat","translation":[-9.39439010620117,-1.0,-15.4083271026611]},{"name":"LinkRoom","translation":[-12.178596496582,-1.0,19.4947814941406]},{"name":"Sprite3D","rotation":[0.0,0.70710676908493,0.0,0.70710676908493],"scale":[1.60000002384186,1.60000002384186,1.60000002384186],"translation":[-9.0,-4.0,2.80599999427795]}],"samplers":[{"magFilter":9729,"minFilter":9987,"wrapS":10497,"wrapT":10497}],"scene":0,"scenes":[{"nodes":[0]}],"textures":[{"sampler":0,"source":0}]}