{
	"asset":{
		"generator":"Khronos glTF Blender I/O v4.2.70",
		"version":"2.0"
	},
	"extensionsUsed":[
		"KHR_materials_emissive_strength"
	],
	"scene":0,
	"scenes":[
		{
			"name":"Scene",
			"nodes":[
				0,
				1,
				2,
				3,
				4
			]
		}
	],
	"nodes":[
		{
			"mesh":0,
			"name":"Head",
			"translation":[
				-0.18272791802883148,
				13.539427757263184,
				7.670384407043457
			]
		},
		{
			"mesh":1,
			"name":"Ribs"
		},
		{
			"mesh":2,
			"name":"Weapons",
			"rotation":[
				-0.002440433017909527,
				-0.0004046616959385574,
				-0.011692645028233528,
				0.9999285936355591
			],
			"translation":[
				-0.3104230761528015,
				0,
				0
			]
		},
		{
			"mesh":3,
			"name":"Body"
		},
		{
			"mesh":4,
			"name":"Strands",
			"scale":[
				0.2452661097049713,
				0.2452661097049713,
				0.2452661097049713
			],
			"translation":[
				-1.2667677402496338,
				9.452718734741211,
				0.11824437230825424
			]
		}
	],
	"materials":[
		{
			"doubleSided":true,
			"name":"Black",
			"pbrMetallicRoughness":{
				"baseColorFactor":[
					0.005855364724993706,
					0.005508695729076862,
					0.006095566786825657,
					1
				],
				"metallicFactor":0.5730769634246826
			}
		},
		{
			"doubleSided":true,
			"emissiveFactor":[
				0.37235280871391296,
				0.18927069008350372,
				1
			],
			"extensions":{
				"KHR_materials_emissive_strength":{
					"emissiveStrength":4
				}
			},
			"name":"Eyes'",
			"pbrMetallicRoughness":{
				"baseColorFactor":[
					0.3238736391067505,
					0.14269544184207916,
					0.958711564540863,
					1
				],
				"metallicFactor":0,
				"roughnessFactor":0.4461538791656494
			}
		},
		{
			"doubleSided":true,
			"name":"BlackMetal",
			"pbrMetallicRoughness":{
				"baseColorFactor":[
					0.010238729417324066,
					0.0035962227266281843,
					0.012080490589141846,
					1
				],
				"roughnessFactor":0.2615385055541992
			}
		}
	],
	"meshes":[
		{
			"name":"Cube",
			"primitives":[
				{
					"attributes":{
						"POSITION":0,
						"NORMAL":1,
						"TEXCOORD_0":2,
						"COLOR_0":3,
						"COLOR_1":4
					},
					"indices":5,
					"material":0
				},
				{
					"attributes":{
						"POSITION":6,
						"NORMAL":7,
						"TEXCOORD_0":8,
						"COLOR_0":9,
						"COLOR_1":10
					},
					"indices":11,
					"material":1
				},
				{
					"attributes":{
						"POSITION":12,
						"NORMAL":13,
						"TEXCOORD_0":14,
						"COLOR_0":15,
						"COLOR_1":16
					},
					"indices":17,
					"material":2
				}
			]
		},
		{
			"name":"Sphere.001",
			"primitives":[
				{
					"attributes":{
						"POSITION":18,
						"NORMAL":19,
						"TEXCOORD_0":20
					},
					"indices":21,
					"material":0
				}
			]
		},
		{
			"name":"Cube.001",
			"primitives":[
				{
					"attributes":{
						"POSITION":22,
						"NORMAL":23,
						"TEXCOORD_0":24
					},
					"indices":25,
					"material":2
				}
			]
		},
		{
			"name":"mesh",
			"primitives":[
				{
					"attributes":{
						"POSITION":26,
						"NORMAL":27,
						"TEXCOORD_0":28
					},
					"indices":29,
					"material":0
				}
			]
		},
		{
			"name":"Sphere.002",
			"primitives":[
				{
					"attributes":{
						"POSITION":30,
						"NORMAL":31,
						"TEXCOORD_0":32
					},
					"indices":33,
					"material":0
				}
			]
		}
	],
	"accessors":[
		{
			"bufferView":0,
			"componentType":5126,
			"count":343315,
			"max":[
				1.1261141300201416,
				1.7452540397644043,
				0.9804439544677734
			],
			"min":[
				-1.069346308708191,
				-2.2310447692871094,
				-1.4533418416976929
			],
			"type":"VEC3"
		},
		{
			"bufferView":1,
			"componentType":5126,
			"count":343315,
			"type":"VEC3"
		},
		{
			"bufferView":2,
			"componentType":5126,
			"count":343315,
			"type":"VEC2"
		},
		{
			"bufferView":3,
			"componentType":5121,
			"count":343315,
			"normalized":true,
			"type":"VEC4"
		},
		{
			"bufferView":4,
			"componentType":5126,
			"count":343315,
			"type":"VEC3"
		},
		{
			"bufferView":5,
			"componentType":5125,
			"count":1956504,
			"type":"SCALAR"
		},
		{
			"bufferView":6,
			"componentType":5126,
			"count":1224,
			"max":[
				0.7751124501228333,
				1.0349998474121094,
				0.8636865615844727
			],
			"min":[
				-1.037898063659668,
				-0.00275421142578125,
				0.35651588439941406
			],
			"type":"VEC3"
		},
		{
			"bufferView":7,
			"componentType":5126,
			"count":1224,
			"type":"VEC3"
		},
		{
			"bufferView":8,
			"componentType":5126,
			"count":1224,
			"type":"VEC2"
		},
		{
			"bufferView":9,
			"componentType":5121,
			"count":1224,
			"normalized":true,
			"type":"VEC4"
		},
		{
			"bufferView":10,
			"componentType":5126,
			"count":1224,
			"type":"VEC3"
		},
		{
			"bufferView":11,
			"componentType":5123,
			"count":5760,
			"type":"SCALAR"
		},
		{
			"bufferView":12,
			"componentType":5126,
			"count":6708,
			"max":[
				0.5895112752914429,
				1.0556854009628296,
				0.9020635485649109
			],
			"min":[
				-0.8422427773475647,
				-0.11275696754455566,
				0.47960105538368225
			],
			"type":"VEC3"
		},
		{
			"bufferView":13,
			"componentType":5126,
			"count":6708,
			"type":"VEC3"
		},
		{
			"bufferView":14,
			"componentType":5126,
			"count":6708,
			"type":"VEC2"
		},
		{
			"bufferView":15,
			"componentType":5121,
			"count":6708,
			"normalized":true,
			"type":"VEC4"
		},
		{
			"bufferView":16,
			"componentType":5126,
			"count":6708,
			"type":"VEC3"
		},
		{
			"bufferView":17,
			"componentType":5123,
			"count":34560,
			"type":"SCALAR"
		},
		{
			"bufferView":18,
			"componentType":5126,
			"count":74173,
			"max":[
				1.2655519247055054,
				11.92795467376709,
				3.479862928390503
			],
			"min":[
				-2.065300226211548,
				8.926610946655273,
				-1.8908557891845703
			],
			"type":"VEC3"
		},
		{
			"bufferView":19,
			"componentType":5126,
			"count":74173,
			"type":"VEC3"
		},
		{
			"bufferView":20,
			"componentType":5126,
			"count":74173,
			"type":"VEC2"
		},
		{
			"bufferView":21,
			"componentType":5125,
			"count":357792,
			"type":"SCALAR"
		},
		{
			"bufferView":22,
			"componentType":5126,
			"count":2718,
			"max":[
				11.81064510345459,
				21.702892303466797,
				8.689388275146484
			],
			"min":[
				-11.160174369812012,
				0.0016446411609649658,
				-12.170909881591797
			],
			"type":"VEC3"
		},
		{
			"bufferView":23,
			"componentType":5126,
			"count":2718,
			"type":"VEC3"
		},
		{
			"bufferView":24,
			"componentType":5126,
			"count":2718,
			"type":"VEC2"
		},
		{
			"bufferView":25,
			"componentType":5123,
			"count":12960,
			"type":"SCALAR"
		},
		{
			"bufferView":26,
			"componentType":5126,
			"count":535182,
			"max":[
				9.663768768310547,
				17.02037239074707,
				11.821632385253906
			],
			"min":[
				-11.541839599609375,
				-0.12008025497198105,
				-9.800385475158691
			],
			"type":"VEC3"
		},
		{
			"bufferView":27,
			"componentType":5126,
			"count":535182,
			"type":"VEC3"
		},
		{
			"bufferView":28,
			"componentType":5126,
			"count":535182,
			"type":"VEC2"
		},
		{
			"bufferView":29,
			"componentType":5125,
			"count":2831349,
			"type":"SCALAR"
		},
		{
			"bufferView":30,
			"componentType":5126,
			"count":22698,
			"max":[
				29.49164581298828,
				16.766555786132812,
				33.06018829345703
			],
			"min":[
				-29.724979400634766,
				-30.884273529052734,
				-30.149341583251953
			],
			"type":"VEC3"
		},
		{
			"bufferView":31,
			"componentType":5126,
			"count":22698,
			"type":"VEC3"
		},
		{
			"bufferView":32,
			"componentType":5126,
			"count":22698,
			"type":"VEC2"
		},
		{
			"bufferView":33,
			"componentType":5123,
			"count":112257,
			"type":"SCALAR"
		}
	],
	"bufferViews":[
		{
			"buffer":0,
			"byteLength":4119780,
			"byteOffset":0,
			"target":34962
		},
		{
			"buffer":0,
			"byteLength":4119780,
			"byteOffset":4119780,
			"target":34962
		},
		{
			"buffer":0,
			"byteLength":2746520,
			"byteOffset":8239560,
			"target":34962
		},
		{
			"buffer":0,
			"byteLength":1373260,
			"byteOffset":10986080,
			"target":34962
		},
		{
			"buffer":0,
			"byteLength":4119780,
			"byteOffset":12359340,
			"target":34962
		},
		{
			"buffer":0,
			"byteLength":7826016,
			"byteOffset":16479120,
			"target":34963
		},
		{
			"buffer":0,
			"byteLength":14688,
			"byteOffset":24305136,
			"target":34962
		},
		{
			"buffer":0,
			"byteLength":14688,
			"byteOffset":24319824,
			"target":34962
		},
		{
			"buffer":0,
			"byteLength":9792,
			"byteOffset":24334512,
			"target":34962
		},
		{
			"buffer":0,
			"byteLength":4896,
			"byteOffset":24344304,
			"target":34962
		},
		{
			"buffer":0,
			"byteLength":14688,
			"byteOffset":24349200,
			"target":34962
		},
		{
			"buffer":0,
			"byteLength":11520,
			"byteOffset":24363888,
			"target":34963
		},
		{
			"buffer":0,
			"byteLength":80496,
			"byteOffset":24375408,
			"target":34962
		},
		{
			"buffer":0,
			"byteLength":80496,
			"byteOffset":24455904,
			"target":34962
		},
		{
			"buffer":0,
			"byteLength":53664,
			"byteOffset":24536400,
			"target":34962
		},
		{
			"buffer":0,
			"byteLength":26832,
			"byteOffset":24590064,
			"target":34962
		},
		{
			"buffer":0,
			"byteLength":80496,
			"byteOffset":24616896,
			"target":34962
		},
		{
			"buffer":0,
			"byteLength":69120,
			"byteOffset":24697392,
			"target":34963
		},
		{
			"buffer":0,
			"byteLength":890076,
			"byteOffset":24766512,
			"target":34962
		},
		{
			"buffer":0,
			"byteLength":890076,
			"byteOffset":25656588,
			"target":34962
		},
		{
			"buffer":0,
			"byteLength":593384,
			"byteOffset":26546664,
			"target":34962
		},
		{
			"buffer":0,
			"byteLength":1431168,
			"byteOffset":27140048,
			"target":34963
		},
		{
			"buffer":0,
			"byteLength":32616,
			"byteOffset":28571216,
			"target":34962
		},
		{
			"buffer":0,
			"byteLength":32616,
			"byteOffset":28603832,
			"target":34962
		},
		{
			"buffer":0,
			"byteLength":21744,
			"byteOffset":28636448,
			"target":34962
		},
		{
			"buffer":0,
			"byteLength":25920,
			"byteOffset":28658192,
			"target":34963
		},
		{
			"buffer":0,
			"byteLength":6422184,
			"byteOffset":28684112,
			"target":34962
		},
		{
			"buffer":0,
			"byteLength":6422184,
			"byteOffset":35106296,
			"target":34962
		},
		{
			"buffer":0,
			"byteLength":4281456,
			"byteOffset":41528480,
			"target":34962
		},
		{
			"buffer":0,
			"byteLength":11325396,
			"byteOffset":45809936,
			"target":34963
		},
		{
			"buffer":0,
			"byteLength":272376,
			"byteOffset":57135332,
			"target":34962
		},
		{
			"buffer":0,
			"byteLength":272376,
			"byteOffset":57407708,
			"target":34962
		},
		{
			"buffer":0,
			"byteLength":181584,
			"byteOffset":57680084,
			"target":34962
		},
		{
			"buffer":0,
			"byteLength":224514,
			"byteOffset":57861668,
			"target":34963
		}
	],
	"buffers":[
		{
			"byteLength":58086184,
			"uri":"Strego.bin"
		}
	]
}
